<?xml version="1.0" standalone="no"?>
<!DOCTYPE svg PUBLIC "-//W3C//DTD SVG 20010904//EN"
 "http://www.w3.org/TR/2001/REC-SVG-20010904/DTD/svg10.dtd">
<svg version="1.0" xmlns="http://www.w3.org/2000/svg"
 width="585.000000pt" height="255.000000pt" viewBox="0 0 585.000000 255.000000"
 preserveAspectRatio="xMidYMid meet">

<g transform="translate(0.000000,255.000000) scale(0.100000,-0.100000)"
fill="#1E00B2" stroke="none">
<path d="M978 2316 c-53 -22 -248 -104 -432 -181 -292 -122 -336 -143 -336
-161 0 -27 11 -35 82 -64 l58 -22 0 -80 c0 -71 -3 -84 -25 -110 -59 -70 -14
-178 73 -178 56 0 102 43 102 95 0 38 -24 95 -40 95 -6 0 -10 30 -10 66 0 60
2 65 19 59 11 -3 151 -62 312 -130 161 -69 298 -125 305 -125 14 0 504 209
549 234 17 10 93 43 170 75 125 51 140 60 143 83 2 14 -3 28 -10 31 -49 19
-726 304 -780 328 -36 16 -70 29 -75 28 -4 -1 -52 -20 -105 -43z"/>
<path d="M2230 2100 l0 -60 100 0 100 0 0 -295 0 -295 75 0 75 0 0 295 0 295
98 0 99 0 2 60 2 60 -275 0 -276 0 0 -60z"/>
<path d="M3920 2045 l0 -65 -45 0 -45 0 0 -58 0 -57 45 3 45 4 0 -156 c0 -136
3 -162 20 -195 26 -52 70 -71 159 -71 l71 0 0 55 0 55 -44 0 c-24 0 -48 6 -54
13 -7 8 -12 70 -13 152 l-1 140 56 3 56 3 0 54 0 55 -55 0 c-53 0 -55 1 -55
28 0 15 -3 44 -6 65 l-7 37 -63 0 -64 0 0 -65z"/>
<path d="M2922 1975 c-64 -20 -107 -58 -139 -122 -23 -49 -28 -71 -28 -138 0
-102 22 -160 79 -213 90 -83 242 -85 336 -4 35 29 70 78 70 97 0 3 -30 5 -66
5 -56 0 -71 -4 -96 -25 -32 -27 -89 -33 -131 -14 -29 13 -57 58 -57 93 l0 26
176 0 177 0 -5 63 c-10 119 -69 205 -162 232 -60 18 -97 18 -154 0z m137 -111
c19 -14 51 -69 51 -89 0 -3 -49 -5 -110 -5 -105 0 -110 1 -110 21 0 12 15 36
34 55 27 27 42 34 73 34 21 0 49 -7 62 -16z"/>
<path d="M3270 1973 c0 -5 40 -64 89 -133 l89 -125 -39 -55 c-22 -30 -64 -90
-95 -132 l-55 -78 81 0 80 0 54 80 53 81 51 -81 52 -80 75 0 c41 0 75 3 75 6
0 3 -39 62 -86 131 -47 69 -83 131 -80 138 2 7 39 61 81 121 42 59 79 113 82
121 4 10 -12 13 -71 13 l-75 0 -52 -81 -52 -80 -51 78 -51 78 -78 3 c-42 2
-77 -1 -77 -5z"/>
<path d="M582 1382 l3 -328 228 -306 c125 -168 234 -309 243 -312 8 -3 23 -2
32 3 10 5 119 162 245 349 237 355 253 387 208 412 -12 6 -105 10 -233 10
l-214 0 -37 -75 c-20 -42 -37 -77 -37 -80 0 -2 49 -6 110 -7 l110 -3 -106
-160 c-65 -98 -113 -160 -123 -160 -19 0 -19 4 8 122 12 51 21 100 21 108 0
12 -16 15 -90 15 l-91 0 15 28 c7 15 44 100 81 190 l68 162 264 0 c163 0 272
4 284 10 18 10 19 23 19 181 0 141 -2 170 -14 166 -7 -3 -117 -51 -243 -106
-127 -56 -237 -101 -245 -101 -9 0 -125 47 -258 105 -133 58 -244 105 -246
105 -3 0 -3 -147 -2 -328z"/>
<path d="M2353 1264 c-56 -20 -129 -86 -158 -144 -37 -72 -51 -176 -37 -266
19 -121 73 -203 166 -252 44 -22 63 -26 136 -26 98 1 139 15 201 71 64 58 82
102 87 216 l4 97 -136 0 -136 0 0 -55 0 -55 70 0 c66 0 70 -1 70 -22 0 -33
-35 -85 -72 -108 -40 -24 -116 -26 -158 -5 -61 32 -100 113 -100 210 0 137 75
235 180 235 54 0 104 -28 128 -70 16 -29 20 -30 86 -30 l68 0 -7 28 c-28 116
-137 192 -275 191 -41 0 -94 -7 -117 -15z"/>
<path d="M4000 1159 c0 -114 -1 -119 -17 -103 -61 61 -191 56 -261 -9 -52 -49
-67 -94 -67 -207 0 -89 3 -111 22 -145 43 -81 98 -115 184 -115 56 0 81 10
122 48 l27 26 -6 -32 -6 -32 66 0 66 0 0 345 0 345 -65 0 -65 0 0 -121z m-38
-198 c30 -26 33 -35 36 -100 7 -113 -31 -171 -110 -171 -81 0 -128 100 -98
209 25 92 106 121 172 62z"/>
<path d="M4403 1264 c-56 -21 -129 -87 -157 -143 -77 -152 -51 -367 56 -467
61 -58 114 -78 203 -78 102 0 169 27 225 92 49 55 70 121 70 219 l0 74 -137
-3 -138 -3 -1 -52 -1 -53 75 0 75 0 -7 -31 c-19 -95 -137 -150 -225 -104 -67
34 -101 104 -101 210 0 141 61 226 170 233 64 4 110 -19 138 -68 16 -28 20
-30 85 -30 75 0 77 3 48 65 -23 50 -73 100 -125 128 -54 27 -192 34 -253 11z"/>
<path d="M4884 1267 c-3 -8 -4 -129 -2 -268 3 -238 4 -257 25 -294 27 -51 57
-79 113 -104 52 -24 159 -28 224 -9 55 17 131 91 145 143 7 24 11 140 11 291
l0 251 -64 -1 -64 -1 -4 -240 c-3 -267 -8 -289 -74 -320 -40 -19 -65 -19 -109
-1 -64 27 -70 51 -73 321 l-3 240 -60 3 c-44 2 -61 0 -65 -11z"/>
<path d="M5495 1272 c-3 -3 -5 -158 -5 -344 l0 -338 70 0 70 0 -2 342 -3 342
-62 2 c-34 1 -65 -1 -68 -4z"/>
<path d="M3297 1090 c-43 -13 -92 -55 -111 -93 -28 -60 -23 -67 42 -67 52 0
60 3 72 24 39 74 170 44 158 -36 -3 -21 -10 -23 -104 -34 -116 -12 -160 -32
-187 -84 -23 -44 -18 -120 10 -158 29 -40 80 -62 141 -62 56 0 120 23 129 47
9 22 23 15 23 -12 0 -24 3 -25 61 -25 l61 0 -4 193 c-3 190 -3 194 -30 234
-14 22 -43 48 -65 58 -42 21 -152 29 -196 15z m163 -314 c0 -54 -35 -88 -96
-93 -53 -5 -78 7 -88 43 -14 47 44 80 147 83 36 1 37 0 37 -33z"/>
<path d="M2830 840 l0 -250 64 0 65 0 3 160 3 160 31 31 c25 25 41 32 79 34
42 3 49 6 52 27 2 12 1 38 -2 56 -5 29 -9 32 -43 32 -41 0 -99 -30 -110 -58
-5 -13 -8 -8 -12 18 l-5 35 -62 3 -63 3 0 -251z"/>
</g>
</svg>
